<?xml version="1.0" encoding="UTF-8"?>
<svg xmlns="http://www.w3.org/2000/svg" version="1.1" viewBox="0 0 396.9 269.3">
  <defs>
    <style>
      .cls-1 {
        fill: #00d4c1;
      }

      .cls-2 {
        fill: #72f751;
      }
    </style>
  </defs>
  <!-- Generator: Adobe Illustrator 28.7.1, SVG Export Plug-In . SVG Version: 1.2.0 Build 142)  -->
  <g>
    <g id="Camada_1">
      <g>
        <path class="cls-1" d="M247.5,96.3c-4.9,0-8.9,4-8.9,8.8v70.7c0,4.9,4,8.8,8.9,8.8s8.9-4,8.9-8.8v-70.7c0-4.9-4-8.8-8.9-8.8Z"/>
        <path class="cls-1" d="M123.6,142.7v24.3c0,4.9-4,8.8-8.9,8.8s-8.9-4-8.9-8.8v-24.3c0-4.9,4-8.8,8.9-8.8s8.9,4,8.9,8.8ZM114.7,105.2c-5.5,0-10,4.5-10,9.9s4.5,9.9,10,9.9,10-4.5,10-9.9-4.5-9.9-10-9.9Z"/>
        <path class="cls-1" d="M293.2,142.7v24.3c0,4.9-4,8.8-8.9,8.8s-8.9-4-8.9-8.8v-24.3c0-4.9,4-8.8,8.9-8.8s8.9,4,8.9,8.8ZM284.3,105.2c-5.5,0-10,4.5-10,9.9s4.5,9.9,10,9.9,10-4.5,10-9.9-4.5-9.9-10-9.9Z"/>
        <path class="cls-2" d="M19.4,165.5c0-2.4.9-4.6,2.6-6.3,1.7-1.7,3.9-2.6,6.3-2.6s4.3.8,5.9,2.2c-4.6-4.8-7.4-11.2-7.4-18.3,0-14.6,12-26.5,26.8-26.5s18.9,7.8,18.9,7.8c3.5,3.4,9.1,3.4,12.6,0,3.5-3.4,3.5-9,0-12.5,0,0-11.6-13-31.6-13s-44.6,19.8-44.6,44.2,4.8,22.7,12.5,30.7c-1.3-1.6-2.1-3.6-2.1-5.6Z"/>
        <path class="cls-1" d="M85.2,159.3c-1.7-1.7-3.9-2.6-6.3-2.6s-4.6.9-6.3,2.6c0,0-1.7,2-4.9,3.9-1.9,1.1-3.8,2-5.9,2.7-2.6.8-5.3,1.2-8.1,1.2s-5.4-.4-8-1.2c-2.1-.6-4.1-1.5-5.9-2.7-3.2-1.9-4.9-3.9-4.9-3.9-1.7-1.7-3.9-2.6-6.3-2.6s-4.6.9-6.3,2.6c-1.7,1.7-2.6,3.9-2.6,6.3s.9,4.6,2.6,6.3c0,0,3,3.3,8.3,6.5,3.1,1.9,6.5,3.4,9.9,4.5,4.3,1.3,8.8,2,13.4,2s9.1-.7,13.4-2c3.4-1.1,6.8-2.6,9.9-4.5,5.3-3.2,8.3-6.4,8.3-6.5,1.7-1.7,2.6-3.9,2.6-6.3,0-2.4-.9-4.6-2.6-6.3Z"/>
        <path class="cls-2" d="M150.4,131.7c4.7,0,8.6,3.7,8.9,8.3.3-14.4,12.2-25.9,26.8-25.9s18.9,7.8,18.9,7.8c3.5,3.4,9.1,3.4,12.6,0,3.5-3.4,3.5-9,0-12.5,0,0-11.6-12.9-31.6-12.9s-44.2,19.3-44.6,43.4c.4-4.5,4.3-8.1,8.9-8.1Z"/>
        <path class="cls-1" d="M217.7,159.3c-1.7-1.7-3.9-2.6-6.3-2.6s-4.6.9-6.3,2.6c0,0-1.7,2-4.9,3.9-1.9,1.1-3.8,2-5.9,2.7-2.6.8-5.3,1.2-8.1,1.2s-7.1-.7-10.4-2.1c-3.2-1.3-6.1-3.2-8.5-5.7-2.5-2.4-4.4-5.3-5.7-8.4-1.4-3.3-2.1-6.7-2.1-10.3s-4-8.9-9-8.9-9,4-9,8.9,1.2,11.8,3.5,17.2c2.2,5.3,5.5,10,9.6,14.1,4.1,4.1,8.9,7.3,14.2,9.5,5.5,2.3,11.4,3.5,17.4,3.5s9.1-.7,13.4-2c3.4-1.1,6.8-2.6,9.9-4.5,5.3-3.2,8.3-6.4,8.3-6.5,1.7-1.7,2.6-3.9,2.6-6.3,0-2.4-.9-4.6-2.6-6.2Z"/>
        <path class="cls-2" d="M330.5,106.6c2.4,0,4.7.9,6.4,2.6,1.7,1.7,2.6,3.9,2.6,6.3s-.7,4-2,5.6c4.8-4.4,11.2-7.1,18.2-7.1,12.3,0,18.9,7.8,18.9,7.8,3.5,3.4,9.1,3.4,12.6,0,3.5-3.4,3.5-9,0-12.5,0,0-11.6-12.9-31.6-12.9s-22.8,4.6-30.8,12.2c1.6-1.3,3.5-1.9,5.6-1.9Z"/>
        <path class="cls-1" d="M387.4,159.2c-1.7-1.7-4-2.6-6.4-2.6s-4.7.9-6.4,2.6c0,0-1.7,2-4.9,3.9-1.8,1.1-3.8,2-5.9,2.7-2.6.8-5.3,1.2-8.1,1.2s-7.1-.7-10.4-2.1c-3.2-1.3-6-3.2-8.5-5.7-2.5-2.4-4.4-5.3-5.7-8.4-1.4-3.3-2.1-6.7-2.1-10.3s.7-7,2.1-10.3c1.4-3.1,3.3-6,5.7-8.4,1.7-1.7,2.6-3.9,2.6-6.3s-.9-4.6-2.6-6.3c-1.7-1.7-4-2.6-6.4-2.6s-4.7.9-6.4,2.6c-4.1,4.1-7.3,8.8-9.6,14.1-2.3,5.5-3.5,11.3-3.5,17.2s1.2,11.8,3.5,17.2c2.3,5.3,5.5,10,9.6,14.1,4.1,4.1,8.9,7.3,14.2,9.5,5.5,2.3,11.4,3.5,17.4,3.5s9.1-.7,13.4-2c3.4-1.1,6.8-2.6,9.9-4.5,5.3-3.2,8.3-6.5,8.3-6.5,3.5-3.5,3.5-9.1,0-12.6Z"/>
      </g>
    </g>
  </g>
</svg>